<svg xmlns="http://www.w3.org/2000/svg" viewBox="0 0 32 32" width="30" height="30"
     style="fill: rgba(4, 136, 209, 1);border-color: rgba(187,187,187,1);border-width: 0px;border-style: solid"
     filter="none">
    <path d="M16 1.778c7.855 0 14.222 6.367 14.222 14.222s-6.367 14.222-14.222 14.222-14.222-6.367-14.222-14.222 6.367-14.222 14.222-14.222zM18.518 10.482c0.105-1.373-0.926-2.377-2.27-2.251-0.020 0.003-0.040 0.007-0.060 0.011-0.028 0.003-0.057 0.007-0.084 0.020-0.596 0.158-1.087 0.704-1.169 1.314-0.021 0.203-0.062 0.528-0.13 0.948-0.113 0.7-0.26 1.4-0.442 2.048-0.425 1.512-0.985 2.466-1.499 2.587-0.113 0.027-0.49 0.101-1.030 0.204l-0.043 0.008c1.387-0.214 1-0.139 0.612-0.064l-1.756 0.28c-0.583 0.108-1.028 0.643-1.028 1.235v5.222c0 0.772 0.66 1.334 1.42 1.211l9.367-1.519c0.883-0.143 1.513-0.966 1.432-1.855-0.014-0.086-0.014-0.086-0.016-0.099-0.007-0.050-0.008-0.117 0.012-0.209 0.010-0.022 0.075-0.156 0.092-0.192 0.119-0.257 0.19-0.511 0.213-0.844 0.018-0.25 0.001-0.406-0.051-0.65-0.029-0.138-0.034-0.185-0.023-0.311 0.008-0.097 0.023-0.152 0.070-0.27l0.033-0.083c0.104-0.265 0.16-0.486 0.186-0.809 0.028-0.348-0.005-0.589-0.091-0.899-0.018-0.064-0.018-0.064-0.031-0.112-0.020-0.075-0.023-0.108-0.018-0.157 0.011-0.106 0.025-0.203 0.042-0.292 0.023-0.122 0.043-0.2 0.052-0.227 0.299-1.228-0.537-2.161-1.732-2.019l-2.249 0.268zM12 16.687v5.059l-1.047 0.17v-5.032c2.136-0.352 2.491-0.421 2.846-0.49l-1.798 0.293zM16.421 9.559c0.498-0.029 0.808 0.295 0.767 0.821l-0.202 2.633c-0.060 0.787 0.568 1.393 1.349 1.301l2.398-0.285c0.275-0.033 0.359 0.060 0.295 0.325-0.012 0.028-0.049 0.167-0.084 0.354-0.020 0.102-0.040 0.237-0.055 0.374l-0.002 0.022c-0.024 0.226-0.003 0.414 0.054 0.632 0.020 0.073 0.020 0.073 0.037 0.133 0.048 0.172 0.060 0.264 0.046 0.436-0.015 0.181-0.039 0.277-0.099 0.429l-0.032 0.082c-0.090 0.228-0.136 0.4-0.157 0.644-0.024 0.277-0.007 0.446 0.048 0.707 0.027 0.127 0.032 0.169 0.024 0.273-0.012 0.163-0.039 0.262-0.093 0.379-0.004 0.010-0.081 0.165-0.106 0.223-0.047 0.108-0.080 0.213-0.099 0.329-0.036 0.22-0.034 0.423-0.009 0.601 0.016 0.092 0.016 0.092 0.027 0.137-0.001 0.086-0.148 0.278-0.337 0.309l-6.859 1.113 0-5.12c1.080-0.353 1.787-1.604 2.314-3.478 0.198-0.702 0.354-1.45 0.475-2.196 0.072-0.448 0.117-0.798 0.138-1.004 0.007-0.047 0.092-0.141 0.161-0.173z"></path>
</svg>
