<svg class="icon" style="width: 1.0361328125em;height: 1em;vertical-align: middle;fill: currentColor;overflow: hidden;"
     viewBox="0 0 1061 1024" version="1.1" xmlns="http://www.w3.org/2000/svg">
    <path d="M497.588148 327.585185v-120.357926l-117.494518-117.589333 43.387259-43.425185 74.107259 74.145185V0h61.383111v120.376889l74.10726-74.164148 43.406222 43.425185-117.513482 117.57037v120.376889H497.588148zM656.839111 360.296296l85.048889-85.12474v-166.305186h61.383111v104.884149l85.067852-85.105778 43.387259 43.425185-85.048889 85.105778h104.789334v61.44h-166.153482l-85.048889 85.105777-43.425185-43.425185z m76.041482 120.850963h120.301037l117.494518-117.57037 43.406222 43.425185-74.107259 74.145185h120.282074v61.44H939.994074l74.107259 74.145185-43.406222 43.425186-117.494518-117.570371h-120.282074v-61.44zM400.099556 355.896889L313.457778 269.274074V100.02963h-62.520889v106.723555L164.333037 120.13037l-44.183704 44.22163 86.603852 86.622815H100.02963v62.520889H269.274074l86.622815 86.603852zM320.094815 479.061333h-117.627259L87.608889 360.087704 45.131852 404.024889l72.457481 75.036444H0v62.14163h117.608296l-72.457481 75.017481 42.439111 43.937186 114.87763-118.954667h117.608296zM499.048296 700.169481v117.608297l-118.954666 114.896592 43.937185 42.420149 75.017481-72.438519v117.589333h62.160593V902.637037l75.017481 72.457482 43.937186-42.420149-118.954667-114.896592v-117.608297zM660.15763 664.348444l86.622814 86.622815v169.244445h62.520889V813.511111l86.622815 86.622815 44.183704-44.22163-86.603852-86.622815h106.723556V706.74963h-169.244445l-86.622815-86.603852zM400.099556 664.329481l-86.641778 86.660741v169.225482h-62.501926V813.511111l-86.622815 86.622815-44.183704-44.183704 86.603852-86.641778H100.02963v-62.520888h169.206518l86.622815-86.622815z"
          fill="#606367"/>
    <path d="M540.122074 720.175407a220.046222 220.046222 0 1 1 155.610074-64.455111 218.586074 218.586074 0 0 1-155.610074 64.455111z m0-380.074666a160.047407 160.047407 0 1 0 160.047407 160.047407 160.218074 160.218074 0 0 0-160.047407-160.047407z"
          fill="#606367"/>
</svg>
