<svg class="icon" style="width: 1em;height: 1em;vertical-align: middle;fill: currentColor;overflow: hidden;"
     viewBox="0 0 1024 1024" version="1.1" xmlns="http://www.w3.org/2000/svg">
    <path d="M153.6 614.4v204.8a51.2 51.2 0 0 0 51.2 51.2h614.4a51.2 51.2 0 0 0 51.2-51.2V614.4H153.6z m-51.2-51.2h819.2v256a102.4 102.4 0 0 1-102.4 102.4H204.8a102.4 102.4 0 0 1-102.4-102.4v-256z"
          fill="#787878"/>
    <path d="M716.8 579.968l51.2 1.69V153.6a51.2 51.2 0 0 0-51.2-51.2H307.2a51.2 51.2 0 0 0-51.2 51.2v411.238h51.2V153.6h409.6v426.368z"
          fill="#787878"/>
    <path d="M614.4 404.48a46.08 46.08 0 1 0 92.16 0 46.08 46.08 0 1 0-92.16 0zM251.187 584.448h51.2V887.68h-51.2z m152.576 6.989h51.2v297.472h-51.2z m168.474-10.24h51.2v303.667h-51.2z m143.82-9.165h51.2v311.322h-51.2z"
          fill="#787878"/>
</svg>
