<svg class="icon" style="width: 1.0830078125em;height: 1em;vertical-align: middle;fill: currentColor;overflow: hidden;"
     viewBox="0 0 1109 1024" version="1.1" xmlns="http://www.w3.org/2000/svg">
    <path d="M792.405333 945.237333H316.928A235.52 235.52 0 0 1 79.36 708.864V506.453333c0-20.224 13.568-33.792 33.962667-33.792h882.858666c20.48 0 33.962667 13.568 33.962667 33.792v202.581334a235.52 235.52 0 0 1-237.653333 236.288zM147.114667 540.16v168.789333c0 94.464 74.752 168.789333 169.813333 168.789334h475.477333c95.061333 0 169.813333-74.24 169.813334-168.789334V540.16H147.114667z"
          fill="#666666"/>
    <path d="M1074.688 551.424H34.645333C13.824 551.424 0 535.637333 0 512s13.909333-39.424 34.645333-39.424h1040.042667c20.821333 0 34.645333 15.786667 34.645333 39.424s-13.824 39.424-34.645333 39.424z"
          fill="#666666"/>
    <path d="M193.706667 551.424c-21.162667 0-35.242667-14.762667-35.242667-36.778667V110.250667C158.464 47.786667 204.288 0 264.106667 0h105.642666c59.904 0 105.642667 47.786667 105.642667 110.250667v36.778666c0 22.101333-14.08 36.693333-35.157333 36.693334-21.162667 0-35.242667-14.592-35.242667-36.693334v-36.693333c0-22.186667-14.08-36.778667-35.242667-36.778667H264.106667c-21.077333 0-35.157333 14.677333-35.157334 36.693334v404.394666c0 22.016-14.165333 36.693333-35.242666 36.693334z"
          fill="#666666"/>
    <path d="M554.666667 224.170667H350.890667c-20.394667 0-33.962667-13.312-33.962667-33.28 0-20.053333 13.653333-33.28 33.962667-33.28H554.666667c20.394667 0 33.962667 13.226667 33.962666 33.28 0 19.968-13.653333 33.28-33.962666 33.28zM350.890667 324.266667c-3.413333 0-10.24 0-13.568-3.413334-3.413333-3.242667-6.826667-3.242667-10.24-6.570666a29.952 29.952 0 0 1-10.154667-23.381334c0-9.984 3.413333-16.64 10.24-23.296 3.413333-3.413333 6.826667-6.656 10.24-6.656a31.402667 31.402667 0 0 1 37.290667 6.656c3.413333 3.328 6.826667 6.656 6.826666 9.984 3.413333 3.413333 3.413333 9.984 3.413334 13.312 0 9.984-3.413333 16.725333-10.24 23.381334a31.146667 31.146667 0 0 1-23.808 9.984z m101.888 0c-3.413333 0-10.24 0-13.653334-3.413334-3.328-3.242667-6.741333-3.242667-10.069333-6.570666a29.952 29.952 0 0 1-10.24-23.381334c0-9.984 3.413333-16.64 10.24-23.296 3.413333-3.413333 6.826667-6.656 10.154667-6.656a31.402667 31.402667 0 0 1 37.376 6.656c3.413333 3.328 6.826667 6.656 6.826666 9.984 0 3.413333 3.413333 6.656 3.413334 13.312 0 3.413333 0 9.984-3.413334 13.312-3.413333 3.413333-3.413333 6.741333-6.826666 10.069334a31.146667 31.146667 0 0 1-23.808 9.984z m101.888 0c-3.413333 0-10.24 0-13.653334-3.413334-3.328-3.242667-6.741333-3.242667-10.154666-6.570666a29.952 29.952 0 0 1-10.154667-23.381334c0-9.984 3.413333-16.64 10.24-23.296 3.413333-3.413333 6.741333-6.656 10.154667-6.656 13.568-3.413333 27.136-3.413333 37.376 6.656 6.826667 6.656 10.154667 13.312 10.154666 23.296 0 9.984-3.413333 16.725333-10.24 23.381334a31.146667 31.146667 0 0 1-23.722666 9.984zM350.890667 1024c-20.394667 0-33.962667-13.312-33.962667-33.28v-100.010667c0-19.968 13.653333-33.28 33.962667-33.28 20.394667 0 33.962667 13.312 33.962666 33.28v99.925334c0 20.053333-13.568 33.365333-33.962666 33.365333z m407.552 0c-20.394667 0-33.962667-13.312-33.962667-33.28v-100.010667c0-19.968 13.568-33.28 33.962667-33.28 20.394667 0 33.962667 13.312 33.962666 33.28v99.925334c0 20.053333-13.653333 33.365333-33.962666 33.365333z"
          fill="#666666"/>
</svg>
