<svg class="icon" style="width: 1em;height: 1em;vertical-align: middle;fill: currentColor;overflow: hidden;"
     viewBox="0 0 1024 1024" version="1.1" xmlns="http://www.w3.org/2000/svg">
    <path d="M812.942222 34.133333c31.800889 0 61.44 11.491556 84.081778 32.426667 20.536889 18.944 32.995556 43.349333 35.498667 69.973333l0.455111 10.126223V822.044444c-1.365333 58.823111-50.915556 106.382222-112.298667 110.648889l-8.874667 0.284445H209.92c-62.634667 0-114.005333-45.169778-118.556444-103.082667L91.022222 821.475556V145.578667c0-59.448889 48.924444-106.951111 110.08-111.160889L209.92 34.133333h603.022222z m11.946667 102.4h-625.777778a7.281778 7.281778 0 0 0-5.290667 2.218667l-0.398222 0.796444v688.014223c0 0.625778 1.365333 1.991111 3.413334 2.673777l2.275555 0.341334h625.777778a7.281778 7.281778 0 0 0 5.290667-2.218667l0.398222-0.796444V138.808889l-0.853334-0.625778c-1.194667-1.137778-2.673778-1.649778-4.892444-1.649778z"
          fill="#595959"/>
    <path d="M113.777778 716.8m39.822222 0l716.8 0q39.822222 0 39.822222 39.822222l0 0q0 39.822222-39.822222 39.822222l-716.8 0q-39.822222 0-39.822222-39.822222l0 0q0-39.822222 39.822222-39.822222Z"
          fill="#595959"/>
    <path d="M426.666667 426.666667C426.666667 473.315556 464.213333 512 512 512c46.648889 0 85.333333-37.546667 85.333333-85.333333C597.333333 380.017778 559.786667 341.333333 512 341.333333s-85.333333 38.684444-85.333333 85.333334z"
          fill="#595959"/>
    <path d="M519.793778 170.666667a28.444444 28.444444 0 0 1 27.989333 23.324444l0.455111 5.12v15.530667l5.575111 0.967111a217.315556 217.315556 0 0 1 166.570667 157.639111l2.673778 11.491556 0.967111 5.632H739.555556a28.444444 28.444444 0 0 1 26.680888 18.545777l1.308445 4.835556 0.455111 5.12v15.587555a28.444444 28.444444 0 0 1-23.324444 27.989334l-5.12 0.455111h-15.246223l-0.910222 5.632a216.064 216.064 0 0 1-158.606222 168.220444l-11.036445 2.503111-5.518222 0.853334v15.36a28.444444 28.444444 0 0 1-18.488889 26.624l-4.835555 1.308444-5.12 0.455111h-15.587556a28.444444 28.444444 0 0 1-27.989333-23.324444l-0.455111-5.12-0.056889-15.303111-5.461333-0.853334A215.836444 215.836444 0 0 1 303.047111 479.573333l-2.446222-11.093333-0.967111-5.632H284.444444a28.444444 28.444444 0 0 1-26.680888-18.488889l-1.308445-4.835555-0.455111-5.12v-15.587556a28.444444 28.444444 0 0 1 23.324444-27.989333L284.444444 390.428444l15.246223-0.056888 0.910222-5.461334a214.584889 214.584889 0 0 1 158.549333-167.196444l11.093334-2.446222 5.461333-0.910223V199.111111a28.444444 28.444444 0 0 1 18.545778-26.680889l4.835555-1.308444 5.12-0.455111h15.587556z m-44.088889 120.035555l-7.111111 2.048a142.336 142.336 0 0 0-92.444445 91.989334l-2.048 6.826666h31.630223a28.444444 28.444444 0 0 1 27.989333 23.381334l0.455111 5.12v15.587555a28.444444 28.444444 0 0 1-23.324444 27.989333l-5.12 0.455112h-31.744l2.104888 7.395555a142.222222 142.222222 0 0 0 92.444445 92.672l7.168 1.991111v-32.028444a28.444444 28.444444 0 0 1 23.324444-27.989334l5.12-0.455111h15.644445a28.444444 28.444444 0 0 1 27.989333 23.324445l0.455111 5.12v31.971555l6.997334-1.991111a141.767111 141.767111 0 0 0 91.875555-92.615111l1.991111-7.395555h-30.833778a28.444444 28.444444 0 0 1-27.989333-23.324445l-0.455111-5.12v-15.587555a28.444444 28.444444 0 0 1 23.324444-27.989334l5.12-0.455111 31.516445-0.056889-1.934222-6.656a143.928889 143.928889 0 0 0-92.728889-92.16l-6.883556-1.934222v31.971556a28.444444 28.444444 0 0 1-23.324444 27.989333l-5.12 0.455111h-15.587556a28.444444 28.444444 0 0 1-27.989333-23.324444l-0.455111-5.12-0.056889-32.085334z"
          fill="#595959"/>
</svg>
