<svg class="icon" style="width: 1em;height: 1em;vertical-align: middle;fill: currentColor;overflow: hidden;"
     viewBox="0 0 1024 1024" version="1.1" xmlns="http://www.w3.org/2000/svg">
    <path d="M771.712 903.9872H267.2128A62.4896 62.4896 0 0 1 204.8 841.5744V513.6512h25.6v327.9232a36.864 36.864 0 0 0 36.8128 36.8128H771.712a36.864 36.864 0 0 0 36.8256-36.8128V513.6512h25.6v327.9232a62.4896 62.4896 0 0 1-62.4256 62.4128z"
          fill="#323333"/>
    <path d="M932.8512 543.9872a12.7616 12.7616 0 0 1-9.0496-3.7504L527.8848 144.3072a17.7024 17.7024 0 0 0-24.9728 0L117.2096 530.0096a12.7872 12.7872 0 1 1-18.0992-18.0992L484.8128 126.208a43.328 43.328 0 0 1 61.1712 0l395.9168 395.9296a12.7872 12.7872 0 0 1-9.0496 21.8496zM846.4 321.6a12.8 12.8 0 0 1-12.8-12.8V157.6064H682.4064a12.8 12.8 0 1 1 0-25.6h164.0064a12.8 12.8 0 0 1 12.8 12.8v164.0064a12.8128 12.8128 0 0 1-12.8128 12.7872zM368.064 823.9744h-25.6V564.9408c0-13.696 11.1488-24.8448 24.8448-24.8448h164.7232c13.696 0 24.8448 11.1488 24.8448 24.8448v52.4416h35.3664a44.1856 44.1856 0 0 1 41.7024-29.6704h15.9872a44.224 44.224 0 0 1 44.1728 44.1728v101.6448a44.224 44.224 0 0 1-44.1728 44.1728h-15.9872a44.2496 44.2496 0 0 1-43.4688-36.352h-33.6v81.7792h-25.6v-107.3792h84.096v17.7792c0 10.24 8.32 18.5728 18.56 18.5728h15.9872c10.24 0 18.5728-8.3328 18.5728-18.5728v-101.6448c0-10.24-8.3328-18.5728-18.5728-18.5728h-15.9872c-9.8432 0-17.9712 7.7312-18.5216 17.5872l-0.6656 12.0832h-83.4688v-78.0416l-163.9808 0.7552 0.768 258.2784z"
          fill="#323333"/>
    <path d="M409.9712 775.0912a12.8 12.8 0 0 1-8.7552-22.1312c9.344-8.768 16.832-19.0976 5.7856-48.9728-22.2976-60.1728 19.0976-93.0944 20.8768-94.4768a12.8 12.8 0 0 1 15.6672 20.2496c-1.1008 0.8832-28.1728 23.1168-12.5312 65.3312 15.8336 42.816 1.7408 63.3856-12.288 76.5312a12.7744 12.7744 0 0 1-8.7552 3.4688zM459.968 775.0272a12.8 12.8 0 0 1-8.7424-22.1312c9.344-8.768 16.8192-19.0976 5.7856-48.9728-17.8688-48.2304 5.8496-82.9056 20.8896-94.4896a12.7488 12.7488 0 0 1 17.9456 2.3296 12.7872 12.7872 0 0 1-2.3296 17.9456c-1.1008 0.8704-28.16 23.104-12.5184 65.3312 15.808 42.816 1.7408 63.3856-12.288 76.5312a12.7616 12.7616 0 0 1-8.7424 3.456zM530.3808 565.2608H368.9344a39.0912 39.0912 0 0 1-39.0528-39.0528v-30.3872a39.104 39.104 0 0 1 39.0528-39.0528h161.4464a39.0912 39.0912 0 0 1 39.0528 39.0528v30.3872a38.5536 38.5536 0 0 1-11.3792 27.5328c-7.3984 7.4368-17.216 11.52-27.6736 11.52z m-161.4464-82.88c-7.424 0-13.4528 6.0288-13.4528 13.4528v30.3872c0 7.4112 6.0288 13.4528 13.4528 13.4528h161.4464c3.5968 0 6.9888-1.408 9.536-3.9808 2.5344-2.5472 3.9296-5.888 3.9168-9.4208v-30.4384c0-7.424-6.0416-13.4528-13.4528-13.4528H368.9344z"
          fill="#323333"/>
</svg>
