<svg class="icon" style="width: 1em;height: 1em;vertical-align: middle;fill: currentColor;overflow: hidden;"
     viewBox="0 0 1024 1024" version="1.1" xmlns="http://www.w3.org/2000/svg">
    <path d="M209.92 913.408h602.624V454.144H209.92v459.264z m93.696-312.32c18.432 0 33.28 14.848 33.28 33.28V727.04c0 18.432-14.848 33.28-33.28 33.28s-33.28-14.848-33.28-33.28v-92.672c0-18.432 14.848-33.28 33.28-33.28zM732.672 5.12H289.792C245.76 5.12 210.944 39.936 210.944 83.968v331.776H814.08V83.968C812.544 39.936 776.704 5.12 732.672 5.12zM303.616 302.592c-18.432 0-33.28-14.848-33.28-33.28V157.696c0-18.432 14.848-33.28 33.28-33.28s33.28 14.848 33.28 33.28v111.104c0.512 18.944-14.848 33.792-33.28 33.792z"
          fill="#778391"/>
    <path d="M289.792 1018.88h443.904c37.376 0 67.584-25.088 76.8-60.416H212.48c8.704 35.328 40.448 60.416 77.312 60.416z"
          fill="#ABB3BB"/>
</svg>
