<svg class="icon" style="width: 1em;height: 1em;vertical-align: middle;fill: currentColor;overflow: hidden;"
     viewBox="0 0 1024 1024" version="1.1" xmlns="http://www.w3.org/2000/svg">
    <path d="M917.333333 512a64.064 64.064 0 0 0-64 64v21.333333H170.666667v-21.333333a64 64 0 0 0-128 0v64a85.44 85.44 0 0 0 85.333333 85.333333v64a21.333333 21.333333 0 0 0 42.666667 0v-64h682.666666v64a21.333333 21.333333 0 0 0 42.666667 0v-64a85.44 85.44 0 0 0 85.333333-85.333333v-64a64.064 64.064 0 0 0-64-64z"
          fill="#646464"/>
    <path d="M896 471.68V298.666667a85.333333 85.333333 0 0 0-85.333333-85.333334h-192a85.333333 85.333333 0 0 0-85.333334 85.333334v256h279.466667a106.901333 106.901333 0 0 1 83.2-82.986667zM211.2 554.666667H490.666667V298.666667a85.333333 85.333333 0 0 0-85.333334-85.333334h-192a85.333333 85.333333 0 0 0-85.333333 85.333334v173.013333A106.901333 106.901333 0 0 1 211.2 554.666667z"
          fill="#646464"/>
</svg>
