<svg class="icon" style="width: 1em;height: 1em;vertical-align: middle;fill: currentColor;overflow: hidden;"
     viewBox="0 0 1024 1024" version="1.1" xmlns="http://www.w3.org/2000/svg">
    <path d="M709.973333 409.6H307.2c-30.72 0-54.613333-23.893333-58.026667-54.613333L204.8 68.266667c0-20.48 3.413333-34.133333 13.653333-47.786667 13.653333-13.653333 30.72-20.48 47.786667-20.48h477.866667c17.066667 0 34.133333 6.826667 44.373333 20.48 10.24 13.653333 17.066667 30.72 13.653333 47.786667l-34.133333 290.133333c-3.413333 27.306667-27.306667 51.2-58.026667 51.2zM238.933333 61.44l40.96 290.133333c3.413333 13.653333 13.653333 23.893333 27.306667 23.893334h402.773333c13.653333 0 23.893333-10.24 23.893334-23.893334l34.133333-290.133333c0-6.826667 0-13.653333-6.826667-20.48S750.933333 34.133333 744.106667 34.133333h-477.866667c-10.24 0-17.066667 3.413333-20.48 10.24-6.826667 3.413333-6.826667 10.24-6.826667 17.066667z"
          fill=""/>
    <path d="M529.066667 136.533333h-136.533334c-10.24 0-17.066667-6.826667-17.066666-17.066666s6.826667-17.066667 17.066666-17.066667h136.533334c10.24 0 17.066667 6.826667 17.066666 17.066667s-6.826667 17.066667-17.066666 17.066666zM494.933333 682.666667C351.573333 682.666667 204.8 648.533333 204.8 580.266667c0-64.853333 157.013333-102.4 307.2-102.4s307.2 37.546667 307.2 102.4c0 71.68-191.146667 102.4-324.266667 102.4z m17.066667-170.666667c-170.666667 0-273.066667 44.373333-273.066667 68.266667 0 27.306667 98.986667 68.266667 256 68.266666 170.666667 0 290.133333-44.373333 290.133334-68.266666s-102.4-68.266667-273.066667-68.266667z"
          fill=""/>
    <path d="M512 853.333333c-170.666667 0-307.2-119.466667-307.2-273.066666 0-10.24 6.826667-17.066667 17.066667-17.066667s17.066667 6.826667 17.066666 17.066667c0 150.186667 139.946667 238.933333 273.066667 238.933333s273.066667-88.746667 273.066667-238.933333c0-10.24 6.826667-17.066667 17.066666-17.066667s17.066667 6.826667 17.066667 17.066667c0 153.6-136.533333 273.066667-307.2 273.066666z"
          fill=""/>
    <path d="M621.226667 1024h-221.866667c-17.066667 0-34.133333-6.826667-47.786667-23.893333s-13.653333-34.133333-10.24-51.2l34.133334-133.12c3.413333-10.24 10.24-13.653333 20.48-13.653334 10.24 3.413333 13.653333 10.24 13.653333 20.48L375.466667 955.733333c-3.413333 6.826667 0 17.066667 3.413333 20.48 3.413333 6.826667 13.653333 10.24 20.48 10.24h221.866667c6.826667 0 13.653333-3.413333 20.48-10.24 3.413333-6.826667 6.826667-13.653333 3.413333-20.48l-34.133333-133.12c-3.413333-10.24 3.413333-17.066667 13.653333-20.48 10.24-3.413333 17.066667 3.413333 20.48 13.653334l34.133333 133.12c3.413333 17.066667 0 37.546667-10.24 51.2s-27.306667 23.893333-47.786666 23.893333zM392.533333 512c-10.24 0-17.066667-6.826667-17.066666-17.066667V409.6c0-10.24 6.826667-17.066667 17.066666-17.066667s17.066667 6.826667 17.066667 17.066667v85.333333c0 10.24-6.826667 17.066667-17.066667 17.066667zM597.333333 512c-10.24 0-17.066667-6.826667-17.066666-17.066667V409.6c0-10.24 6.826667-17.066667 17.066666-17.066667s17.066667 6.826667 17.066667 17.066667v85.333333c0 10.24-6.826667 17.066667-17.066667 17.066667zM392.533333 204.8c-27.306667 0-51.2-23.893333-51.2-51.2S365.226667 102.4 392.533333 102.4s51.2 23.893333 51.2 51.2S419.84 204.8 392.533333 204.8z m0-68.266667c-10.24 0-17.066667 6.826667-17.066666 17.066667s6.826667 17.066667 17.066666 17.066667 17.066667-6.826667 17.066667-17.066667-6.826667-17.066667-17.066667-17.066667z"
          fill=""/>
</svg>
