<svg class="icon" style="width: 1em;height: 1em;vertical-align: middle;fill: currentColor;overflow: hidden;"
     viewBox="0 0 1024 1024" version="1.1" xmlns="http://www.w3.org/2000/svg">
    <path d="M741.561457 161.6a35.52 35.52 0 1 0-35.04-35.36 35.2 35.2 0 0 0 35.04 35.36zM393.721457 624a32 32 0 0 0 32-32 87.2 87.2 0 0 1 86.56-87.52 32 32 0 0 0 0-64 150.72 150.72 0 0 0-149.76 151.2 32 32 0 0 0 32 32z"
          fill="#666666"/>
    <path d="M763.001457 0h-502.4A173.28 173.28 0 0 0 88.441457 173.92V849.6A173.28 173.28 0 0 0 260.601457 1024h502.4a173.28 173.28 0 0 0 172.16-174.4V173.92A173.28 173.28 0 0 0 763.001457 0zM262.841457 215.84a32 32 0 0 0 32 32H872.441457V849.6a109.76 109.76 0 0 1-109.44 110.4h-502.4A109.6 109.6 0 0 1 152.441457 849.6V173.92A109.6 109.6 0 0 1 260.601457 64h502.4A109.76 109.76 0 0 1 872.441457 173.92v10.08H294.361457a32 32 0 0 0-31.52 31.84z"
          fill="#666666"/>
    <path d="M327.001457 779.52a257.92 257.92 0 0 0 184.8 77.6 263.36 263.36 0 1 0-184.8-77.6z m-13.44-186.72a198.4 198.4 0 1 1 198.24 200.64 199.68 199.68 0 0 1-198.24-200.64z"
          fill="#666666"/>
</svg>
