<svg class="icon" style="width: 1.3994140625em;height: 1em;vertical-align: middle;fill: currentColor;overflow: hidden;"
     viewBox="0 0 1433 1024" version="1.1" xmlns="http://www.w3.org/2000/svg">
    <path d="M709.4272 7.509333C424.1408 7.509333 170.871467 142.677333 8.328533 351.6416l68.266667 53.248c146.978133-188.689067 375.466667-310.545067 632.832-310.545067 257.2288 0 485.853867 121.856 632.695467 310.545067l68.539733-53.316267C1247.8464 142.5408 994.645333 7.509333 709.4272 7.509333"
          fill="#E1E1E1"/>
    <path d="M709.4272 515.959467c-122.197333 0-230.741333 57.821867-300.509867 147.524266l66.901334 52.087467a295.458133 295.458133 0 0 1 467.421866 0l66.628267-52.087467a379.6992 379.6992 0 0 0-300.4416-147.456M582.4512 897.365333a126.976 126.976 0 1 0 254.020267 0.136534 126.976 126.976 0 0 0-253.952-0.136534"
          fill="#4A4A4A"/>
    <path d="M709.4272 261.7344a632.695467 632.695467 0 0 0-500.736 245.76l66.7648 52.0192a548.727467 548.727467 0 0 1 433.9712-213.060267c176.5376 0 333.141333 83.694933 434.039467 213.060267l66.628266-52.087467a633.0368 633.0368 0 0 0-500.667733-245.691733"
          fill="#4A4A4A"/>
</svg>
